<svg width="40" height="40" viewBox="0 0 39 40" fill="none" xmlns="http://www.w3.org/2000/svg">
<path d="M20.1401 0.204859C20.2031 0.225782 20.2661 0.246705 20.331 0.268262C20.5382 0.337348 20.7447 0.408216 20.9513 0.479094C21.0998 0.528966 21.2483 0.578712 21.3968 0.628338C21.7087 0.732736 22.0204 0.837823 22.3319 0.94345C22.7855 1.09707 23.2399 1.2482 23.6945 1.3985C24.626 1.70657 25.5569 2.01646 26.4877 2.32675C26.5704 2.35432 26.6531 2.38189 26.7383 2.4103C27.5213 2.67132 28.3043 2.93243 29.0871 3.19377C30.0773 3.52429 31.0676 3.85434 32.0582 4.18377C32.7623 4.41799 33.4662 4.65273 34.17 4.88788C34.5878 5.02747 35.0057 5.16682 35.4238 5.3056C35.8143 5.43521 36.2045 5.56548 36.5946 5.69627C36.7374 5.74402 36.8803 5.79153 37.0233 5.83878C37.2185 5.90333 37.4134 5.96873 37.6082 6.03437C37.6645 6.05278 37.7209 6.07119 37.779 6.09016C38.2497 6.2505 38.6642 6.44955 38.9285 6.88559C38.9582 7.09324 38.9582 7.09324 38.9588 7.33526C38.96 7.47377 38.96 7.47377 38.9612 7.61509C38.9609 7.71663 38.9606 7.81818 38.9603 7.9228C38.9608 8.03169 38.9614 8.14058 38.9621 8.24946C38.9637 8.54902 38.9638 8.84856 38.9636 9.14811C38.9638 9.47105 38.9652 9.79398 38.9665 10.1169C38.969 10.8231 38.9697 11.5294 38.9702 12.2356C38.9705 12.6764 38.9712 13.1173 38.9719 13.5581C38.974 14.7784 38.9758 15.9986 38.976 17.2188C38.976 17.2969 38.976 17.375 38.976 17.4555C38.976 17.6138 38.9761 17.7722 38.9761 17.9305C38.9761 18.0091 38.9761 18.0877 38.9761 18.1687C38.9761 18.2474 38.9761 18.3261 38.9761 18.4072C38.9764 19.6828 38.9792 20.9585 38.9832 22.2341C38.9873 23.5434 38.9894 24.8527 38.9893 26.162C38.9894 26.8972 38.9902 27.6325 38.9933 28.3678C38.9959 28.9938 38.9967 29.6198 38.995 30.2458C38.9942 30.5652 38.9942 30.8846 38.9967 31.2041C38.9989 31.4966 38.9986 31.7889 38.9963 32.0813C38.9957 32.2373 38.9978 32.3932 39 32.5492C38.9913 33.2026 38.9913 33.2026 38.8246 33.4602C38.5199 33.7442 38.1504 33.8862 37.759 34.0102C37.6989 34.0304 37.6388 34.0506 37.5768 34.0715C37.378 34.1381 37.1787 34.2028 36.9793 34.2676C36.8366 34.3151 36.6939 34.3627 36.5513 34.4104C36.2503 34.511 35.949 34.6109 35.6477 34.7104C35.2034 34.8574 34.7602 35.0075 34.3173 35.1587C34.2091 35.1957 34.2091 35.1957 34.0987 35.2334C33.9517 35.2836 33.8046 35.3338 33.6576 35.384C32.0965 35.9167 30.5334 36.4433 28.9703 36.9699C28.0768 37.2709 27.1836 37.5729 26.291 37.8768C25.5025 38.1453 24.7135 38.4122 23.9238 38.6772C23.5089 38.8165 23.0942 38.9566 22.6802 39.0986C22.2924 39.2315 21.904 39.3623 21.5149 39.4915C21.3736 39.5389 21.2325 39.587 21.0917 39.636C19.376 40.2313 18.1275 40.0425 16.4292 39.4586C16.2479 39.398 16.0666 39.3377 15.8851 39.2776C15.4472 39.1319 15.0099 38.9841 14.5729 38.8354C14.0631 38.6619 13.5525 38.491 13.0418 38.3201C12.1308 38.0151 11.2205 37.7081 10.3106 37.3998C9.42885 37.1011 8.54671 36.8037 7.66403 36.5079C7.60954 36.4896 7.55504 36.4714 7.4989 36.4526C7.38911 36.4158 7.27931 36.379 7.16952 36.3422C7.08827 36.3149 7.08827 36.3149 7.00538 36.2872C6.95134 36.269 6.8973 36.2509 6.84163 36.2323C5.998 35.9495 5.15473 35.6656 4.31152 35.3816C4.00662 35.2789 3.70167 35.1763 3.39669 35.0739C2.86828 34.8963 2.34012 34.718 1.81223 34.5389C1.63701 34.4795 1.46172 34.4204 1.28634 34.3616C1.04705 34.2812 0.808067 34.2 0.569145 34.1186C0.499679 34.0955 0.430212 34.0724 0.358641 34.0486C-0.110088 33.8873 -0.477517 33.708 -0.827968 33.3449C-1.02731 32.9128 -0.999898 32.4981 -0.996601 32.0275C-0.996961 31.9204 -0.997454 31.8134 -0.998073 31.7064C-0.999373 31.4127 -0.998732 31.119 -0.997766 30.8253C-0.997061 30.5084 -0.99815 30.1914 -0.999007 29.8745C-1.00039 29.2538 -1.00009 28.6332 -0.999188 28.0125C-0.998484 27.508 -0.99839 27.0035 -0.998729 26.4991C-0.998777 26.4273 -0.998825 26.3555 -0.998874 26.2815C-0.998974 26.1357 -0.999074 25.9899 -0.999176 25.8441C-1.00006 24.4764 -0.999043 23.1087 -0.997369 21.741C-0.995977 20.5675 -0.996218 19.394 -0.997655 18.2205C-0.999322 16.8578 -0.999981 15.4952 -0.999024 14.1325C-0.998925 13.9872 -0.998826 13.8419 -0.998729 13.6966C-0.998681 13.6251 -0.998634 13.5536 -0.998584 13.4799C-0.998315 12.9761 -0.998768 12.4723 -0.999502 11.9685C-1.00038 11.3544 -1.00014 10.7404 -0.99848 10.1263C-0.997661 9.81301 -0.99734 9.49974 -0.99837 9.18644C-0.9993 8.89957 -0.998788 8.61273 -0.997132 8.32586C-0.996619 8.17308 -0.997635 8.0203 -0.998708 7.86752C-0.994049 7.34476 -0.983522 6.98355 -0.645427 6.57299C-0.241407 6.28607 0.202128 6.14053 0.66948 5.98547C0.745689 5.95967 0.821898 5.93387 0.900416 5.9073C1.15491 5.82131 1.40968 5.73616 1.66446 5.65102C1.84736 5.58942 2.03025 5.52778 2.21312 5.4661C2.65782 5.31627 3.1027 5.167 3.54768 5.01804C3.90956 4.8969 4.27137 4.77558 4.63314 4.65414C5.66 4.30948 6.68704 3.96533 7.71428 3.6218C7.76959 3.6033 7.82491 3.58481 7.8819 3.56575C7.93728 3.54723 7.99266 3.52871 8.04971 3.50963C8.94713 3.20948 9.84412 2.90809 10.7409 2.60613C11.6629 2.29571 12.5852 1.98626 13.5079 1.6778C14.0254 1.50476 14.5428 1.33132 15.0598 1.15683C15.5461 0.992709 16.0329 0.829936 16.52 0.668052C16.6984 0.608518 16.8767 0.548546 17.0548 0.488097C17.2985 0.405464 17.5427 0.324449 17.7871 0.243806C17.857 0.219694 17.9268 0.195581 17.9988 0.170738C18.7432 -0.0709003 19.405 -0.0529419 20.1401 0.204859Z" fill="black"/>
<path d="M10 24C10.5288 24.1573 11.0539 24.3171 11.577 24.4908C11.6839 24.5261 11.6839 24.5261 11.7929 24.5621C12.0202 24.6373 12.2476 24.7126 12.4749 24.7879C12.6165 24.8348 12.7581 24.8816 12.8998 24.9284C13.4212 25.1009 13.9426 25.2735 14.4639 25.4461C15.6308 25.8323 16.7977 26.2185 18 26.6164C18 30.043 18 33.4696 18 37C17.4448 36.8499 16.9004 36.6991 16.3565 36.518C16.2553 36.4847 16.2553 36.4847 16.1521 36.4506C15.9328 36.3783 15.7137 36.3056 15.4945 36.2329C15.3409 36.1821 15.1873 36.1313 15.0336 36.0805C14.7135 35.9747 14.3935 35.8687 14.0735 35.7626C13.6629 35.6264 13.2521 35.4906 12.8413 35.3549C12.525 35.2503 12.2086 35.1457 11.8923 35.0409C11.7408 34.9908 11.5892 34.9406 11.4377 34.8905C11.2268 34.8208 11.016 34.7509 10.8052 34.681C10.7425 34.6602 10.6797 34.6395 10.615 34.6181C10.1838 34.4748 10.1838 34.4748 10 34.3836C10 30.957 10 27.5304 10 24Z" fill="#2C87C3"/>
<path d="M10 12C10.5552 12.1394 11.0996 12.2795 11.6435 12.4477C11.711 12.4684 11.7784 12.489 11.8479 12.5103C12.0672 12.5775 12.2863 12.6451 12.5055 12.7126C12.6591 12.7598 12.8127 12.807 12.9664 12.8541C13.2865 12.9524 13.6065 13.0509 13.9265 13.1494C14.3371 13.2759 14.7479 13.4021 15.1587 13.5282C15.475 13.6253 15.7914 13.7225 16.1077 13.8198C16.2592 13.8664 16.4108 13.913 16.5623 13.9595C16.7732 14.0243 16.984 14.0892 17.1948 14.1542C17.2575 14.1735 17.3203 14.1927 17.385 14.2126C17.8162 14.3457 17.8162 14.3457 18 14.4304C18 17.5884 18 20.7463 18 24C17.3505 23.9146 17.3505 23.9146 17.0715 23.8284C17.0083 23.8092 16.9452 23.7899 16.8802 23.7701C16.779 23.7385 16.779 23.7385 16.6758 23.7063C16.6021 23.6837 16.5285 23.6611 16.4526 23.6378C16.2158 23.565 15.9792 23.4916 15.7426 23.4182C15.5958 23.373 15.449 23.3278 15.3022 23.2827C14.7597 23.1157 14.2175 22.9478 13.6753 22.7801C12.4624 22.4057 11.2496 22.0313 10 21.6456C10 18.4625 10 15.2795 10 12Z" fill="#5DBC54"/>
<path d="M28 24C28 27.4266 28 30.8532 28 34.3836C24.0135 35.7192 24.0135 35.7192 22.4076 36.2434C22.1128 36.3397 21.8181 36.4362 21.5234 36.5327C21.3342 36.5946 21.145 36.6565 20.9557 36.7183C20.8248 36.7612 20.8248 36.7612 20.6912 36.805C20.5726 36.8436 20.5726 36.8436 20.4517 36.8831C20.3822 36.9058 20.3128 36.9285 20.2412 36.9518C20.0833 37 20.0833 37 20 37C20 33.5734 20 30.1468 20 26.6164C23.9865 25.2808 23.9865 25.2808 25.5924 24.7566C25.8872 24.6603 26.1819 24.5638 26.4766 24.4673C26.6658 24.4054 26.855 24.3435 27.0443 24.2817C27.1316 24.2531 27.2188 24.2245 27.3088 24.195C27.3878 24.1693 27.4669 24.1435 27.5483 24.1169C27.6178 24.0942 27.6872 24.0715 27.7588 24.0482C27.9167 24 27.9167 24 28 24Z" fill="#E5BB01"/>
<path d="M28 12C28 15.183 28 18.3661 28 21.6456C26.8297 21.9965 25.6594 22.3473 24.4536 22.7089C23.5893 22.9737 22.7254 23.2392 21.8621 23.5068C21.5945 23.5897 21.3267 23.6723 21.059 23.7549C20.9789 23.7799 20.8989 23.8048 20.8164 23.8304C20.7437 23.8528 20.6709 23.8753 20.596 23.8984C20.5323 23.9181 20.4687 23.9378 20.4031 23.9581C20.2474 24 20.2474 24 20.0825 24C20.0553 20.842 20.028 17.6841 20 14.4304C24.0126 13.1686 24.0126 13.1686 25.5303 12.7028C25.8211 12.6135 26.1118 12.5237 26.4025 12.434C26.5896 12.3766 26.7766 12.3191 26.9636 12.2617C27.0496 12.2351 27.1355 12.2085 27.2241 12.1812C27.3023 12.1572 27.3806 12.1333 27.4612 12.1086C27.5297 12.0875 27.5983 12.0665 27.6689 12.0447C27.8351 12 27.8351 12 28 12Z" fill="#074897"/>
<path d="M2 22C2.47302 22.1349 2.93124 22.2658 3.39371 22.4276C3.4451 22.4455 3.4965 22.4634 3.54945 22.4819C3.71224 22.5387 3.87492 22.5958 4.0376 22.6529C4.13951 22.6885 4.24143 22.7241 4.34336 22.7596C4.71701 22.8901 5.09053 23.0211 5.46406 23.152C6.30092 23.4448 7.13778 23.7375 8 24.0392C8 27.3263 8 30.6133 8 34C7.52698 33.8651 7.06876 33.7342 6.60629 33.5724C6.5292 33.5455 6.5292 33.5455 6.45055 33.5181C6.28776 33.4613 6.12508 33.4042 5.9624 33.3471C5.86049 33.3115 5.75857 33.2759 5.65664 33.2404C5.28299 33.1099 4.90947 32.9789 4.53594 32.848C3.69908 32.5552 2.86222 32.2625 2 31.9608C2 28.6737 2 25.3867 2 22Z" fill="#E85128"/>
<path d="M36 22C36 25.2871 36 28.5741 36 31.9608C35.0378 32.2973 34.0757 32.6337 33.0844 32.9804C32.7803 33.0869 32.4763 33.1933 32.163 33.303C31.7924 33.4324 31.7924 33.4324 31.619 33.4929C31.4976 33.5353 31.3762 33.5778 31.2549 33.6204C31.0713 33.6847 30.8877 33.7488 30.704 33.8128C30.6226 33.8415 30.6226 33.8415 30.5396 33.8707C30.1671 34 30.1671 34 30 34C30 30.7129 30 27.4259 30 24.0392C30.9622 23.7027 31.9243 23.3663 32.9156 23.0196C33.3717 22.8599 33.3717 22.8599 33.837 22.697C34.2076 22.5676 34.2076 22.5676 34.381 22.5071C34.5024 22.4647 34.6238 22.4222 34.7451 22.3796C34.9287 22.3153 35.1123 22.2512 35.296 22.1872C35.3502 22.1681 35.4045 22.149 35.4604 22.1293C35.8329 22 35.8329 22 36 22Z" fill="#D41905"/>
<path d="M2.00932 9C2.42554 9.09125 2.82795 9.19893 3.23171 9.34125C3.3071 9.36766 3.3071 9.36766 3.384 9.3946C3.54747 9.45197 3.71078 9.50985 3.87409 9.56774C3.98861 9.60807 4.10313 9.64836 4.21766 9.68863C4.45633 9.77262 4.69492 9.85685 4.93345 9.94126C5.23946 10.0495 5.5456 10.1574 5.85179 10.2651C6.08764 10.3481 6.32345 10.4313 6.55925 10.5144C6.67219 10.5543 6.78514 10.5941 6.8981 10.6339C7.05531 10.6893 7.21247 10.7449 7.36961 10.8005C7.45904 10.8321 7.54846 10.8638 7.6406 10.8963C7.85023 10.9737 7.85023 10.9737 8 11.0526C8 14.3353 8 17.6179 8 21C7.61418 20.9419 7.28552 20.8692 6.92256 20.7394C6.87002 20.721 6.81747 20.7027 6.76334 20.6838C6.59136 20.6235 6.4196 20.5626 6.24784 20.5016C6.1279 20.4594 6.00795 20.4173 5.88798 20.3751C5.63751 20.287 5.38714 20.1986 5.13684 20.1099C4.81542 19.9961 4.49381 19.8828 4.17213 19.7698C3.92488 19.6829 3.67771 19.5958 3.43056 19.5086C3.31193 19.4667 3.19327 19.4249 3.0746 19.3831C2.90943 19.325 2.74436 19.2665 2.57932 19.208C2.52999 19.1906 2.48067 19.1733 2.42985 19.1555C2.09277 19.0354 2.09277 19.0354 2.00932 18.9474C2.00212 18.8185 2.00019 18.6893 2.00031 18.5602C2.00021 18.4764 2.00011 18.3926 2 18.3063C2.00027 18.2135 2.00054 18.1208 2.00082 18.0253C2.0008 17.9282 2.00079 17.8312 2.00078 17.7312C2.00083 17.4644 2.0012 17.1975 2.00172 16.9307C2.00219 16.6521 2.00224 16.3735 2.00233 16.0949C2.00256 15.5671 2.00317 15.0392 2.00392 14.5113C2.00476 13.9105 2.00517 13.3096 2.00555 12.7088C2.00633 11.4725 2.00765 10.2363 2.00932 9Z" fill="#F1DA15"/>
<path d="M36 9C36 12.2826 36 15.5653 36 18.9474C30.2893 21 30.2893 21 30 21C30 17.7174 30 14.4347 30 11.0526C35.7107 9 35.7107 9 36 9Z" fill="#228D1B"/>
<path d="M19.9754 8.24433C20.0302 8.26284 20.085 8.28134 20.1415 8.30041C20.3204 8.36098 20.4991 8.42239 20.6778 8.48381C20.8026 8.52626 20.9275 8.56867 21.0524 8.61102C21.3795 8.72207 21.7064 8.83383 22.0332 8.94575C22.3673 9.06004 22.7017 9.17366 23.0361 9.28734C23.691 9.51008 24.3456 9.73357 25 9.95754C24.7703 10.1905 24.4815 10.2479 24.1782 10.3452C24.1103 10.3674 24.0424 10.3896 23.9725 10.4125C23.7502 10.4852 23.5277 10.5572 23.3052 10.6291C22.9989 10.7286 22.6927 10.8284 22.3866 10.9282C22.3103 10.953 22.234 10.9779 22.1554 11.0035C21.6934 11.1544 21.2338 11.3106 20.7758 11.4732C20.6693 11.5107 20.5629 11.5481 20.4564 11.5856C20.2633 11.6536 20.071 11.7232 19.8788 11.7939C19.7927 11.8242 19.7066 11.8544 19.6179 11.8856C19.545 11.9121 19.472 11.9385 19.3969 11.9658C18.6481 12.1087 17.9127 11.7724 17.2127 11.5331C17.0933 11.4928 16.974 11.4526 16.8546 11.4124C16.6058 11.3284 16.3572 11.2439 16.1088 11.1591C15.7898 11.0503 15.4705 10.9426 15.1511 10.8353C14.9052 10.7525 14.6595 10.6692 14.4139 10.5858C14.2961 10.5458 14.1783 10.506 14.0605 10.4664C13.8965 10.4112 13.7328 10.3552 13.5692 10.2991C13.476 10.2674 13.3827 10.2357 13.2867 10.203C13.0779 10.1156 13.0779 10.1156 13 9.95754C14.2498 9.52317 14.2498 9.52317 14.8727 9.30831C14.9819 9.27066 14.9819 9.27066 15.0932 9.23224C15.2419 9.18096 15.3906 9.12969 15.5393 9.07843C15.952 8.93594 16.3641 8.79199 16.7757 8.64603C17.0092 8.56338 17.2431 8.48174 17.4771 8.40032C17.5857 8.36225 17.6941 8.32371 17.8024 8.28469C17.9529 8.2305 18.1039 8.17798 18.2552 8.1258C18.3393 8.09601 18.4234 8.06623 18.5101 8.03554C19.0177 7.92998 19.4948 8.07737 19.9754 8.24433Z" fill="#E54F27"/>
<path d="M10.7939 5.10774C10.8507 5.12885 10.9075 5.14996 10.966 5.17171C11.0257 5.19498 11.0855 5.21825 11.147 5.24222C11.211 5.26626 11.275 5.2903 11.3409 5.31507C11.5448 5.39191 11.7483 5.47004 11.9517 5.54826C12.0849 5.59878 12.2181 5.64921 12.3513 5.69956C12.55 5.77467 12.7486 5.84984 12.9472 5.92539C13.6288 6.1844 14.3141 6.43131 15 6.67653C15 6.73437 15 6.79221 15 6.8518C14.2478 7.12482 13.4955 7.39755 12.7431 7.66992C12.3937 7.79641 12.0443 7.92299 11.6951 8.0498C11.3579 8.17219 11.0207 8.29433 10.6834 8.41629C10.5548 8.46284 10.4263 8.50948 10.2977 8.55622C10.1175 8.62172 9.93727 8.68688 9.75696 8.75197C9.70396 8.77132 9.65096 8.79068 9.59636 8.81061C9.10384 8.98769 8.80593 9.08427 8.3055 8.90251C8.21376 8.86973 8.12201 8.83695 8.02748 8.80319C7.92923 8.76686 7.83098 8.73054 7.72975 8.69312C7.62738 8.656 7.52498 8.61897 7.42256 8.58201C7.2084 8.50448 6.99447 8.42626 6.78071 8.34748C6.50661 8.2465 6.2321 8.14692 5.95742 8.04781C5.69538 7.95313 5.43362 7.85756 5.17185 7.76202C5.07311 7.72622 4.97436 7.69043 4.87263 7.65356C4.78165 7.61995 4.69066 7.58635 4.59692 7.55173C4.5166 7.52227 4.43628 7.49282 4.35352 7.46247C4.16176 7.37759 4.16176 7.37759 4 7.20233C4.65106 6.90804 5.31408 6.65835 5.98257 6.415C6.03733 6.39502 6.0921 6.37504 6.14853 6.35445C6.43753 6.24904 6.72663 6.14394 7.01581 6.03909C7.31302 5.93127 7.60988 5.82234 7.90667 5.71317C8.13665 5.62881 8.36687 5.54527 8.59717 5.46194C8.70674 5.42214 8.81622 5.38203 8.92559 5.3416C9.07853 5.28516 9.23186 5.22999 9.38521 5.17487C9.51545 5.12742 9.51545 5.12742 9.64832 5.07901C10.0395 4.9759 10.4116 4.96207 10.7939 5.10774Z" fill="#5CBB53"/>
<path d="M28.6244 5.18301C28.7046 5.21195 28.7046 5.21195 28.7864 5.24147C28.9616 5.30492 29.1363 5.36965 29.3111 5.43442C29.4335 5.47908 29.5559 5.52365 29.6784 5.56816C29.9998 5.68519 30.3208 5.80334 30.6418 5.92171C30.9036 6.01805 31.1656 6.11361 31.4277 6.20912C31.9698 6.40675 32.5118 6.60488 33.0533 6.80443C33.1491 6.83969 33.245 6.87496 33.3437 6.91129C33.5653 6.99577 33.7829 7.08593 34 7.18298C33.7559 7.32367 33.5115 7.42534 33.2495 7.5201C33.1637 7.55125 33.078 7.5824 32.9896 7.6145C32.8975 7.64768 32.8053 7.68086 32.7103 7.71505C32.6153 7.74946 32.5203 7.78386 32.4224 7.81931C32.2216 7.89197 32.0207 7.96453 31.8198 8.03692C31.5627 8.12956 31.3057 8.22254 31.0487 8.31565C30.8031 8.40464 30.5573 8.4934 30.3116 8.58217C30.2194 8.61553 30.1272 8.64888 30.0323 8.68325C29.9465 8.71413 29.8608 8.745 29.7724 8.77681C29.6971 8.804 29.6218 8.83118 29.5441 8.85918C29.4778 8.88194 29.4114 8.90469 29.3431 8.92813C29.2934 8.94957 29.2437 8.97102 29.1925 8.99311C28.9209 9.02858 28.686 8.9202 28.4326 8.82504C28.3739 8.80378 28.3151 8.78252 28.2545 8.76061C28.0605 8.69018 27.8669 8.61846 27.6732 8.54672C27.5387 8.49761 27.4042 8.44857 27.2696 8.39962C26.9156 8.2706 26.5619 8.14049 26.2083 8.01015C25.8474 7.87732 25.4861 7.74552 25.1249 7.61364C24.4163 7.35476 23.708 7.09472 23 6.83395C23 6.77636 23 6.71877 23 6.65944C23.4468 6.49339 23.8935 6.3274 24.3403 6.16148C24.4918 6.10523 24.6432 6.04896 24.7946 5.99267C25.1583 5.85748 25.5221 5.72259 25.8862 5.58836C26.1409 5.49431 26.395 5.39854 26.6485 5.3006C26.7028 5.28001 26.757 5.25942 26.8129 5.23821C26.9549 5.18424 27.0967 5.12943 27.2385 5.07455C27.7381 4.93309 28.1412 5.00613 28.6244 5.18301Z" fill="#2B86C2"/>
<path d="M19.5738 3.12245C19.6514 3.14426 19.729 3.16608 19.8089 3.18856C20.0783 3.26673 20.3462 3.34821 20.614 3.43052C20.7113 3.4601 20.8085 3.48967 20.9086 3.52014C21.1646 3.59808 21.4204 3.67631 21.6763 3.75469C21.9383 3.83489 22.2005 3.91471 22.4626 3.99456C22.9752 4.15077 23.4877 4.30736 24 4.46425C23.7687 4.60449 23.5889 4.67287 23.3277 4.75225C23.1972 4.79217 23.1972 4.79217 23.064 4.8329C22.97 4.86124 22.876 4.88959 22.7791 4.9188C22.6824 4.94819 22.5857 4.97758 22.486 5.00787C22.2812 5.07 22.0764 5.132 21.8715 5.19377C21.6617 5.25702 21.4521 5.32057 21.2426 5.38443C20.9403 5.47651 20.6379 5.56812 20.3355 5.65958C20.242 5.68808 20.1485 5.71658 20.0521 5.74594C19.9643 5.77232 19.8766 5.79869 19.7861 5.82587C19.7093 5.84909 19.6325 5.87231 19.5534 5.89624C19.1019 6.01415 18.804 6.04803 18.3539 5.9105C18.261 5.88262 18.168 5.85474 18.0722 5.82601C17.9731 5.79511 17.8739 5.76421 17.7718 5.73238C17.6681 5.7008 17.5645 5.6693 17.4608 5.63787C17.2442 5.57198 17.0279 5.50544 16.8118 5.43837C16.5347 5.35239 16.2572 5.2677 15.9794 5.18345C15.7143 5.10293 15.4495 5.02163 15.1847 4.94034C15.0849 4.9099 14.9851 4.87945 14.8822 4.84808C14.7903 4.8195 14.6984 4.79091 14.6036 4.76146C14.5225 4.73641 14.4413 4.71135 14.3577 4.68554C14.1639 4.61334 14.1639 4.61334 14 4.46425C14.4516 4.32374 14.9032 4.18331 15.3548 4.04293C15.5077 3.99539 15.6606 3.94783 15.8135 3.90025C15.8871 3.87737 15.9606 3.85449 16.0364 3.83091C16.1099 3.80803 16.1834 3.78515 16.2591 3.76157C16.4076 3.71551 16.5561 3.66968 16.7048 3.62409C17.0633 3.51402 17.4201 3.40146 17.7747 3.28122C17.8403 3.25963 17.9059 3.23804 17.9735 3.2158C18.0952 3.17569 18.2163 3.1343 18.3368 3.09131C18.7954 2.94281 19.1154 2.99154 19.5738 3.12245Z" fill="#EED814"/>
<path d="M10 24C10.669 24.1348 11.3374 24.2715 12 24.4198C12 27.9113 12 31.4027 12 35C11 34.916 11 34.916 10 34.6641C10 31.145 10 27.6258 10 24Z" fill="#ECE2EA"/>
<path d="M2 22C2.6875 22.229 2.6875 22.229 3 22.3817C3 25.5557 3 28.7298 3 32C2.5625 31.9237 2.5625 31.9237 2 31.6947C2 28.4954 2 25.2962 2 22Z" fill="#FADCCD"/>
<path d="M10 12C11.375 12.229 11.375 12.229 12 12.3817C12 15.5557 12 18.7298 12 22C11.125 21.9237 11.125 21.9237 10 21.6947C10 18.4954 10 15.2962 10 12Z" fill="#EEEAD2"/>
<path d="M2 9C2.5625 9.15267 2.5625 9.15267 3 9.38168C3 12.5557 3 15.7298 3 19C2.4375 18.8473 2.4375 18.8473 2 18.6183C2 15.4443 2 12.2702 2 9Z" fill="#FAF4C9"/>
</svg>
