<?xml version="1.0" standalone="no"?>
<!DOCTYPE svg PUBLIC "-//W3C//DTD SVG 20010904//EN"
 "http://www.w3.org/TR/2001/REC-SVG-20010904/DTD/svg10.dtd">
<svg version="1.0" xmlns="http://www.w3.org/2000/svg"
 width="600.000000pt" height="600.000000pt" viewBox="0 0 600.000000 600.000000"
 preserveAspectRatio="xMidYMid meet">

<g transform="translate(0.000000,600.000000) scale(0.100000,-0.100000)"
fill="#000000" stroke="none">
<path d="M0 3000 l0 -3000 3000 0 3000 0 0 3000 0 3000 -3000 0 -3000 0 0
-3000z m2713 2973 c-7 -2 -19 -2 -25 0 -7 3 -2 5 12 5 14 0 19 -2 13 -5z m124
0 c-20 -2 -52 -2 -70 0 -17 2 0 4 38 4 39 0 53 -2 32 -4z m86 0 c-7 -2 -21 -2
-30 0 -10 3 -4 5 12 5 17 0 24 -2 18 -5z m295 0 c-26 -2 -71 -2 -100 0 -29 2
-8 3 47 3 55 0 79 -1 53 -3z m95 0 c-7 -2 -19 -2 -25 0 -7 3 -2 5 12 5 14 0
19 -2 13 -5z m64 -9 c-3 -3 -12 -4 -19 -1 -8 3 -5 6 6 6 11 1 17 -2 13 -5z
m-738 -20 c2 -2 -32 -4 -77 -4 -45 0 -82 -3 -82 -7 0 -7 -48 -9 -67 -3 -5 1
21 8 57 14 56 11 157 10 169 0z m89 9 c-10 -2 -28 -2 -40 0 -13 2 -5 4 17 4
22 1 32 -1 23 -4z m100 0 c-10 -2 -26 -2 -35 0 -10 3 -2 5 17 5 19 0 27 -2 18
-5z m380 0 c-10 -2 -26 -2 -35 0 -10 3 -2 5 17 5 19 0 27 -2 18 -5z m115 0
c-13 -2 -33 -2 -45 0 -13 2 -3 4 22 4 25 0 35 -2 23 -4z m203 -9 c54 -7 56 -8
29 -15 -18 -5 -31 -5 -33 1 -2 6 -40 11 -85 12 -71 1 -76 2 -37 8 25 4 50 6
56 4 6 -1 37 -6 70 -10z m-641 -4 c-3 -5 -14 -10 -23 -9 -14 0 -13 2 3 9 27
11 27 11 20 0z m256 -8 c-7 -2 -18 1 -23 6 -8 8 -4 9 13 5 13 -4 18 -8 10 -11z
m-381 -1 c0 -5 -9 -7 -20 -4 -11 3 -20 7 -20 9 0 2 9 4 20 4 11 0 20 -4 20 -9z
m505 -1 c-27 -12 -43 -12 -25 0 8 5 22 9 30 9 10 0 8 -3 -5 -9z m-868 -6 c-3
-3 -12 -4 -19 -1 -8 3 -5 6 6 6 11 1 17 -2 13 -5z m156 -1 c-7 -2 -19 -2 -25
0 -7 3 -2 5 12 5 14 0 19 -2 13 -5z m930 0 c-7 -2 -21 -2 -30 0 -10 3 -4 5 12
5 17 0 24 -2 18 -5z m-1159 -17 c-11 -8 -28 -16 -39 -19 -11 -2 -8 -3 8 -2 15
1 27 -3 27 -8 0 -6 -20 -7 -48 -3 -36 5 -64 1 -107 -14 -64 -22 -74 -24 -59
-12 5 5 38 17 74 26 36 10 83 24 105 31 53 18 64 18 39 1z m1420 -9 l49 -14
-33 -6 c-18 -4 -44 -6 -59 -6 -22 1 -21 3 9 9 l35 7 -32 2 c-18 0 -33 5 -33
10 0 5 -8 12 -17 14 -10 2 -7 3 7 1 14 -2 47 -10 74 -17z m-1466 -47 c22 -7
23 -8 6 -9 -11 -1 -29 6 -40 15 -10 8 -13 12 -6 9 8 -4 26 -11 40 -15z m1607
5 c39 -17 11 -18 -35 0 -23 9 -28 14 -15 14 11 0 34 -6 50 -14z m-148 -11 c-3
-3 -12 -4 -19 -1 -8 3 -5 6 6 6 11 1 17 -2 13 -5z m86 -1 c-7 -2 -19 -2 -25 0
-7 3 -2 5 12 5 14 0 19 -2 13 -5z m-1768 -12 c-3 -5 -22 -15 -41 -21 -21 -7
-32 -15 -25 -19 6 -4 -5 -7 -25 -7 -19 0 -38 -4 -42 -9 -4 -6 -20 -11 -37 -13
-45 -5 -27 5 63 36 45 16 85 32 89 35 10 10 25 8 18 -2z m1990 -30 c69 -28 90
-39 68 -38 -18 1 -33 5 -33 9 0 3 -25 14 -55 23 -46 15 -102 44 -85 45 3 0 50
-18 105 -39z m-1975 -1 c-8 -5 -22 -9 -30 -9 -10 0 -8 3 5 9 27 12 43 12 25 0z
m1885 0 c13 -6 15 -9 5 -9 -8 0 -22 4 -30 9 -18 12 -2 12 25 0z m-1878 -26
c-3 -3 -12 -4 -19 -1 -8 3 -5 6 6 6 11 1 17 -2 13 -5z m1870 0 c-3 -3 -12 -4
-19 -1 -8 3 -5 6 6 6 11 1 17 -2 13 -5z m-1959 -11 c-10 -2 -26 -2 -35 0 -10
3 -2 5 17 5 19 0 27 -2 18 -5z m-148 -11 c0 -10 -45 -32 -63 -32 -9 1 31 26
61 39 1 1 2 -3 2 -7z m2385 -30 c-6 -7 -65 19 -65 28 0 4 16 0 35 -8 19 -9 32
-18 30 -20z m-2398 -19 c-9 -9 -20 -14 -24 -10 -3 4 2 14 13 21 25 19 33 10
11 -11z m2369 0 c-6 -6 -36 9 -36 18 0 5 9 4 20 -3 10 -7 18 -14 16 -15z
m-2426 -6 c0 -7 -4 -6 -10 3 -8 13 -13 9 -12 -10 0 -3 -16 -6 -36 -7 l-37 -2
40 18 c41 19 55 18 55 -2z m2569 -23 c3 -3 -1 -10 -7 -16 -9 -9 -12 -8 -12 4
0 17 -44 33 -62 22 -7 -5 -8 -2 -3 6 6 10 4 12 -8 7 -11 -4 -14 -2 -11 8 4 11
15 9 52 -7 26 -11 49 -22 51 -24z m-2694 -24 c-3 -5 -12 -10 -19 -10 -7 0 -21
-7 -32 -15 -18 -14 -17 -15 11 -9 17 4 27 4 23 0 -3 -4 -27 -9 -53 -11 -25 -1
-45 -2 -43 0 10 8 104 55 111 55 5 0 5 -4 2 -10z m2808 -37 c66 -37 88 -53 71
-53 -6 0 -26 11 -45 25 -19 15 -42 24 -54 21 -11 -2 -29 0 -40 5 -16 7 -14 8
10 4 28 -5 29 -4 11 10 -11 8 -25 15 -32 15 -7 0 -16 5 -20 11 -10 17 28 2 99
-38z m-98 17 c3 -5 1 -10 -4 -10 -6 0 -11 5 -11 10 0 6 2 10 4 10 3 0 8 -4 11
-10z m-8 -26 c-3 -3 -12 -4 -19 -1 -8 3 -5 6 6 6 11 1 17 -2 13 -5z m-2841
-30 c-30 -21 -45 -16 -16 6 14 10 27 16 30 13 3 -2 -4 -11 -14 -19z m-65 -30
c-18 -13 -20 -19 -10 -26 11 -8 10 -9 -3 -4 -17 5 -108 -47 -116 -66 -2 -4 -8
-8 -13 -8 -11 0 -94 -61 -132 -97 -15 -15 -30 -24 -33 -21 -3 4 18 25 48 47
29 23 64 50 76 61 13 11 25 20 27 20 2 0 39 25 82 55 43 30 82 54 88 55 5 0
-1 -7 -14 -16z m79 6 c0 -5 -8 -10 -17 -10 -15 0 -16 2 -3 10 19 12 20 12 20
0z m2985 0 c3 -6 -1 -7 -9 -4 -18 7 -21 14 -7 14 6 0 13 -4 16 -10z m120 -40
c41 -28 75 -52 75 -55 0 -2 -5 -7 -10 -10 -6 -4 -9 -1 -8 6 2 7 -6 15 -17 17
-17 4 -18 3 -5 -13 14 -17 13 -17 -5 -7 -11 6 -35 17 -52 24 -18 7 -33 16 -33
20 0 12 8 10 36 -8 19 -13 28 -14 37 -5 8 8 7 11 -6 11 -9 0 -27 10 -40 23
-13 12 -32 27 -43 34 -10 6 -15 12 -11 12 4 1 41 -22 82 -49z m-1765 -11 c0
-6 -4 -7 -10 -4 -5 3 -10 11 -10 16 0 6 5 7 10 4 6 -3 10 -11 10 -16z m-1430
-9 c0 -5 -7 -10 -16 -10 -8 0 -12 5 -9 10 3 6 10 10 16 10 5 0 9 -4 9 -10z
m1320 6 c0 -3 -4 -8 -10 -11 -5 -3 -10 -1 -10 4 0 6 5 11 10 11 6 0 10 -2 10
-4z m247 -2 c-3 -3 -12 -4 -19 -1 -8 3 -5 6 6 6 11 1 17 -2 13 -5z m-120 -26
c-3 -8 -6 -5 -6 6 -1 11 2 17 5 13 3 -3 4 -12 1 -19z m-1514 -10 c3 -8 -5 -14
-20 -14 -22 -2 -23 -1 -6 12 22 17 20 16 26 2z m1724 5 c-20 -2 -52 -2 -70 0
-17 2 0 4 38 4 39 0 53 -2 32 -4z m1783 -132 c25 -19 52 -42 60 -50 8 -9 32
-29 53 -45 21 -15 36 -30 33 -33 -3 -3 -31 16 -61 42 -59 50 -84 56 -41 10 31
-34 32 -39 6 -25 -11 6 -20 15 -20 20 0 5 -7 16 -16 24 -8 9 -11 16 -5 16 20
0 11 20 -12 29 -13 5 -29 17 -37 26 -14 17 -15 16 -22 -6 -7 -22 -7 -22 -4 4
3 22 -3 31 -30 48 -19 11 -39 17 -45 13 -8 -4 -9 -3 -5 5 4 6 2 19 -6 28 -13
17 63 -36 152 -106z m-2347 99 c8 0 8 -3 0 -11 -9 -9 -16 -7 -30 7 -17 17 -17
18 0 11 10 -4 24 -7 30 -7z m107 -5 c11 -13 10 -14 -4 -9 -9 3 -16 10 -16 15
0 13 6 11 20 -6z m630 11 c0 -3 -4 -8 -10 -11 -5 -3 -10 -1 -10 4 0 6 5 11 10
11 6 0 10 -2 10 -4z m-550 -16 c0 -5 -4 -10 -10 -10 -5 0 -10 5 -10 10 0 6 5
10 10 10 6 0 10 -4 10 -10z m502 -22 c-8 -8 -9 -4 -5 13 4 13 8 18 11 10 2 -7
-1 -18 -6 -23z m-622 12 c-8 -5 -19 -10 -25 -10 -5 0 -3 5 5 10 8 5 20 10 25
10 6 0 3 -5 -5 -10z m814 -42 c4 -16 11 -28 17 -28 6 0 8 7 4 18 -5 13 -3 14
6 5 6 -6 18 -9 25 -6 22 8 16 -5 -6 -17 -35 -18 -56 -4 -57 38 -2 39 1 36 11
-10z m-869 22 c-3 -5 -11 -10 -16 -10 -6 0 -7 5 -4 10 3 6 11 10 16 10 6 0 7
-4 4 -10z m-1265 -5 c0 -2 -10 -10 -22 -16 -21 -11 -22 -11 -9 4 13 16 31 23
31 12z m3480 -5 c0 -5 -4 -10 -10 -10 -5 0 -10 5 -10 10 0 6 5 10 10 10 6 0
10 -4 10 -10z m-2367 -27 c-7 -2 -19 -2 -25 0 -7 3 -2 5 12 5 14 0 19 -2 13
-5z m1140 -18 c4 -8 3 -16 -1 -19 -4 -3 -9 4 -9 15 -2 23 3 25 10 4z m-28 -6
c11 -17 -1 -21 -15 -4 -8 9 -8 15 -2 15 6 0 14 -5 17 -11z m-1115 -15 c0 -2
-9 -4 -20 -4 -11 0 -20 4 -20 9 0 5 9 7 20 4 11 -3 20 -7 20 -9z m-1266 -9
c-4 -10 0 -15 12 -16 17 -1 17 -2 2 -6 -10 -2 -18 -9 -18 -14 0 -6 -5 -7 -11
-3 -8 4 -7 9 2 15 8 5 10 9 6 9 -5 0 -33 -21 -63 -46 -30 -26 -57 -45 -60 -42
-2 3 11 17 30 31 18 15 47 40 64 57 34 33 44 38 36 15z m76 -10 c0 -8 -4 -15
-10 -15 -5 0 -10 7 -10 15 0 8 5 15 10 15 6 0 10 -7 10 -15z m2463 -22 c-7 -2
-21 -2 -30 0 -10 3 -4 5 12 5 17 0 24 -2 18 -5z m-1326 -45 c-3 -7 -5 -2 -5
12 0 14 2 19 5 13 2 -7 2 -19 0 -25z m-1232 12 c-3 -5 -11 -10 -16 -10 -6 0
-7 5 -4 10 3 6 11 10 16 10 6 0 7 -4 4 -10z m-46 -31 c-16 -10 -23 -4 -14 10
3 6 11 8 17 5 6 -4 5 -9 -3 -15z m3856 -8 c-6 -5 -25 10 -25 20 0 5 6 4 14 -3
8 -7 12 -15 11 -17z m-2688 -27 c-16 -9 -31 -13 -34 -10 -3 3 5 10 18 15 37
15 47 12 16 -5z m-1257 2 c0 -2 -8 -10 -17 -17 -16 -13 -17 -12 -4 4 13 16 21
21 21 13z m1176 -23 c-10 -10 -19 5 -10 18 6 11 8 11 12 0 2 -7 1 -15 -2 -18z
m2940 -5 c28 -30 18 -30 -18 1 -16 13 -24 31 -15 31 2 0 16 -14 33 -32z
m-1236 -7 c0 -11 -3 -22 -7 -24 -5 -3 -8 6 -8 19 0 13 3 24 8 24 4 0 7 -9 7
-19z m-30 -6 c0 -8 -2 -15 -4 -15 -2 0 -6 7 -10 15 -3 8 -1 15 4 15 6 0 10 -7
10 -15z m-1677 -30 c-3 -9 -8 -14 -10 -11 -3 3 -2 9 2 15 9 16 15 13 8 -4z
m3022 -35 c16 -16 24 -30 18 -30 -7 0 -21 14 -33 30 -12 17 -20 30 -18 30 3 0
17 -13 33 -30z m-3034 -33 c-10 -9 -11 -8 -5 6 3 10 9 15 12 12 3 -3 0 -11 -7
-18z m-34 -29 c-3 -8 -6 -5 -6 6 -1 11 2 17 5 13 3 -3 4 -12 1 -19z m3177 -58
c12 -14 50 -61 85 -105 34 -44 70 -89 79 -100 9 -11 21 -28 27 -37 5 -9 29
-46 52 -82 23 -37 38 -66 33 -66 -5 0 -7 -8 -4 -17 5 -15 3 -15 -10 2 -9 11
-14 25 -11 33 2 7 -5 26 -17 42 -18 24 -24 27 -42 19 -18 -9 -19 -8 -6 3 16
13 16 48 -1 48 -5 0 -9 9 -9 19 0 10 -7 21 -15 24 -8 4 -26 25 -41 49 -15 24
-35 49 -46 56 -10 7 -18 19 -18 26 0 7 -10 21 -22 32 -18 16 -21 17 -15 2 4
-12 2 -15 -9 -11 -11 4 -12 9 -3 19 15 19 -29 58 -48 42 -9 -7 -13 -7 -13 0 0
6 6 12 13 15 9 3 7 9 -5 24 -10 11 -18 24 -18 29 1 5 10 -2 21 -16 11 -14 30
-36 43 -50z m-3144 20 c0 -5 -2 -10 -4 -10 -3 0 -8 5 -11 10 -3 6 -1 10 4 10
6 0 11 -4 11 -10z m3125 -50 c3 -5 2 -10 -4 -10 -5 0 -13 5 -16 10 -3 6 -2 10
4 10 5 0 13 -4 16 -10z m-1334 -50 c9 13 10 13 6 0 -2 -8 -10 -15 -17 -15 -7
0 -15 7 -17 15 -4 13 -3 13 6 0 10 -13 12 -13 22 0z m-33 -35 c-3 -3 -9 2 -12
12 -6 14 -5 15 5 6 7 -7 10 -15 7 -18z m1429 -21 c-9 -9 -28 6 -21 18 4 6 10
6 17 -1 6 -6 8 -13 4 -17z m-1392 -35 c4 -12 3 -25 -3 -31 -6 -6 -11 1 -14 21
-5 35 7 42 17 10z m1452 -11 c-3 -8 -6 -5 -6 6 -1 11 2 17 5 13 3 -3 4 -12 1
-19z m-2925 -19 c-2 -14 13 -18 92 -24 52 -4 100 -4 106 0 24 15 75 -5 92 -34
9 -16 41 -46 72 -67 47 -31 67 -38 135 -45 46 -4 94 -15 111 -25 34 -21 39
-34 12 -34 -11 0 -25 -14 -35 -35 -9 -19 -21 -35 -27 -35 -16 0 -82 -60 -157
-143 -48 -53 -78 -64 -169 -61 -43 2 -103 6 -131 10 -101 12 -149 -10 -164
-75 -5 -22 -22 -62 -38 -88 -35 -59 -48 -138 -25 -160 8 -9 13 -22 10 -29 -9
-24 14 -26 42 -2 16 14 26 31 24 43 -3 21 72 110 92 110 6 0 11 9 11 19 0 27
20 31 58 13 18 -9 44 -19 60 -22 15 -4 27 -11 27 -15 0 -5 -12 -10 -27 -12
-19 -2 0 -10 63 -26 105 -25 107 -26 99 -12 -3 6 2 10 12 10 10 0 45 14 77 30
64 33 75 31 101 -21 24 -44 0 -144 -45 -190 -19 -20 -41 -34 -48 -31 -19 6
-68 -53 -88 -105 -14 -36 -15 -48 -4 -68 16 -31 6 -86 -20 -105 -11 -8 -20
-19 -20 -25 0 -5 -7 -22 -14 -37 -8 -15 -11 -30 -7 -32 10 -7 1 -66 -10 -66
-5 0 -8 -6 -6 -12 1 -7 -6 -12 -15 -12 -10 1 -18 -3 -18 -8 0 -5 -8 -7 -18 -4
-12 4 -21 -3 -30 -24 -8 -17 -20 -30 -27 -30 -7 0 -19 -12 -26 -28 -11 -25
-16 -27 -55 -25 -24 1 -55 -2 -69 -7 -18 -7 -25 -6 -25 3 0 7 -7 4 -14 -6 -9
-12 -16 -14 -21 -8 -3 6 -15 11 -26 11 -10 0 -19 5 -19 11 0 6 -6 17 -14 25
-13 12 -14 9 -10 -23 5 -36 5 -37 -10 -19 -9 11 -16 14 -16 8 0 -19 -20 -14
-21 6 0 14 -2 14 -7 2 -4 -8 -16 -16 -27 -18 -12 -2 -16 0 -9 5 8 6 9 40 3
116 -6 87 -13 118 -34 158 -14 27 -35 73 -46 102 -11 29 -24 61 -28 72 -59
134 -53 211 23 313 13 19 27 51 31 72 8 45 17 55 70 72 51 17 63 61 33 119
-18 36 -73 69 -113 69 -19 0 -29 18 -17 33 14 19 72 192 82 249 13 66 47 134
84 165 24 20 38 23 80 21 41 -2 50 -6 48 -19z m2952 -15 c5 -14 4 -15 -9 -4
-17 14 -19 20 -6 20 5 0 12 -7 15 -16z m-3226 -39 c-3 -3 -9 2 -12 12 -6 14
-5 15 5 6 7 -7 10 -15 7 -18z m46 -31 c9 -8 16 -21 16 -27 0 -7 -5 -6 -12 3
-7 8 -20 20 -28 27 -9 8 -11 12 -3 13 6 0 19 -7 27 -16z m-16 -39 c-3 -3 -9 2
-12 12 -6 14 -5 15 5 6 7 -7 10 -15 7 -18z m-31 -17 c-3 -7 -5 -2 -5 12 0 14
2 19 5 13 2 -7 2 -19 0 -25z m3308 13 c3 -5 1 -12 -5 -16 -5 -3 -10 1 -10 9 0
18 6 21 15 7z m-3288 -53 c-3 -7 -5 -2 -5 12 0 14 2 19 5 13 2 -7 2 -19 0 -25z
m3313 11 c0 -5 -4 -9 -10 -9 -5 0 -10 7 -10 16 0 8 5 12 10 9 6 -3 10 -10 10
-16z m-3294 -29 c-9 -56 -27 -94 -38 -78 -4 7 -8 18 -8 23 0 6 4 4 9 -4 7 -11
12 -4 20 25 6 21 11 47 11 57 0 9 3 17 6 17 4 0 4 -18 0 -40z m1707 -12 c-8
-46 -13 -48 -13 -5 0 21 4 37 10 37 5 0 7 -14 3 -32z m1662 -19 c9 -17 14 -33
11 -36 -4 -4 -36 49 -36 62 0 13 11 2 25 -26z m-1678 -71 c-3 -8 -6 -5 -6 6
-1 11 2 17 5 13 3 -3 4 -12 1 -19z m1767 -93 c30 -60 53 -113 50 -117 -3 -4
-7 -18 -9 -29 -7 -34 -12 -33 -17 5 -2 19 0 32 5 29 9 -5 4 16 -13 62 -4 12
-15 27 -24 34 -9 7 -16 19 -16 25 0 6 -9 28 -20 49 -18 33 -27 68 -16 56 3 -2
29 -53 60 -114z m-3497 73 c-3 -8 -6 -5 -6 6 -1 11 2 17 5 13 3 -3 4 -12 1
-19z m-12 -48 c3 -5 1 -10 -4 -10 -6 0 -11 5 -11 10 0 6 2 10 4 10 3 0 8 -4
11 -10z m3458 -40 c3 -11 1 -18 -4 -14 -5 3 -9 12 -9 20 0 20 7 17 13 -6z
m-3492 -17 c-12 -20 -14 -14 -5 12 4 9 9 14 11 11 3 -2 0 -13 -6 -23z m1786
-70 c-3 -10 -5 -4 -5 12 0 17 2 24 5 18 2 -7 2 -21 0 -30z m-1714 -32 c36 -19
34 -29 -5 -34 -29 -3 -28 -4 9 -5 57 -3 67 -22 10 -22 -37 0 -46 4 -55 25 -11
24 -6 59 7 53 3 -2 18 -10 34 -17z m1712 -1 c-3 -5 -11 -10 -16 -10 -6 0 -7 5
-4 10 3 6 11 10 16 10 6 0 7 -4 4 -10z m1854 -68 c21 -51 29 -82 24 -100 -6
-25 -6 -25 -14 -4 -5 12 -6 28 -3 36 3 7 -6 39 -20 71 -23 51 -33 86 -22 74 2
-2 18 -37 35 -77z m-3133 24 c20 -21 19 -22 -31 -18 -43 4 -53 11 -38 25 11
12 54 7 69 -7z m1257 -13 c-7 -2 -14 -21 -14 -41 -2 -32 -3 -33 -6 -9 -5 35 2
57 19 56 10 0 10 -2 1 -6z m1930 -145 c6 -22 5 -22 -8 -4 -17 22 -20 40 -6 32
5 -3 11 -16 14 -28z m-1979 -12 c-3 -9 -10 -13 -16 -10 -5 3 -4 12 3 20 15 18
22 13 13 -10z m1946 -1 c5 3 12 0 16 -6 4 -8 3 -9 -4 -5 -8 5 -12 -1 -12 -15
0 -29 -6 -22 -13 16 -4 17 -4 24 -1 17 3 -6 10 -10 14 -7z m84 -143 c23 -82
26 -104 17 -133 l-11 -34 5 33 c4 28 -25 149 -60 247 -6 18 -5 19 7 3 8 -9 27
-61 42 -116z m-2019 38 c4 -6 -1 -7 -12 -3 -16 6 -16 5 -4 -11 13 -16 12 -16
-13 -5 -25 12 -26 14 -9 20 25 11 31 10 38 -1z m69 -51 c-5 -8 -54 12 -54 23
0 3 13 1 29 -5 17 -6 28 -14 25 -18z m76 -19 c-13 -8 -13 -10 2 -10 27 0 86
-31 93 -49 5 -13 4 -13 -12 1 -10 9 -42 24 -71 34 -39 14 -48 20 -35 26 27 10
40 9 23 -2z m80 -10 c24 -15 7 -18 -20 -3 -14 7 -18 13 -10 13 8 0 22 -4 30
-10z m125 -92 c25 -12 45 -25 45 -29 0 -4 -22 4 -50 18 -45 22 -59 33 -45 33
2 0 25 -10 50 -22z m1715 -36 c0 -7 -4 -10 -10 -7 -5 3 -10 16 -10 28 0 18 2
19 10 7 5 -8 10 -21 10 -28z m-1600 -37 c25 -18 36 -22 41 -13 5 7 11 9 16 5
4 -5 1 -12 -7 -18 -10 -5 -11 -12 -5 -16 24 -19 38 -63 32 -107 -4 -26 -2 -48
3 -51 6 -4 -6 -22 -26 -41 -44 -41 -52 -43 -26 -6 67 95 50 182 -47 248 -20
13 -31 24 -25 24 5 0 25 -11 44 -25z m80 15 c0 -5 -2 -10 -4 -10 -3 0 -8 5
-11 10 -3 6 -1 10 4 10 6 0 11 -4 11 -10z m-2285 -30 c3 -5 1 -10 -4 -10 -6 0
-11 5 -11 10 0 6 2 10 4 10 3 0 8 -4 11 -10z m3822 -42 c-3 -7 -5 -2 -5 12 0
14 2 19 5 13 2 -7 2 -19 0 -25z m39 -238 c-2 -8 -5 -1 -6 15 -3 28 -3 27 -10
-10 -7 -37 -8 -35 -8 20 1 33 -2 92 -6 130 -5 62 -4 58 14 -35 11 -58 18 -112
16 -120z m-3766 62 c5 -20 9 -64 8 -97 -1 -50 -2 -53 -5 -15 -1 25 -6 65 -9
90 -5 36 -8 41 -14 25 -7 -16 -8 -13 -7 12 2 39 13 33 27 -15z m3727 26 c-3
-8 -6 -5 -6 6 -1 11 2 17 5 13 3 -3 4 -12 1 -19z m-3737 -78 c0 -5 -5 -10 -11
-10 -5 0 -7 5 -4 10 3 6 8 10 11 10 2 0 4 -4 4 -10z m2129 -17 c-6 -10 -28
-31 -50 -47 -21 -16 -37 -32 -34 -34 5 -5 -50 -52 -61 -52 -11 0 138 149 149
150 4 0 2 -8 -4 -17z m1651 -58 c5 15 7 9 8 -20 0 -22 1 -47 3 -55 1 -8 1 -44
-1 -80 l-3 -65 -7 90 c-4 50 -9 104 -12 120 -3 17 -3 21 0 10 l4 -20 8 20z
m-1657 1 c4 -10 1 -13 -9 -9 -15 6 -19 23 -5 23 5 0 11 -7 14 -14z m-2116 -78
c-3 -7 -5 -2 -5 12 0 14 2 19 5 13 2 -7 2 -19 0 -25z m2038 12 c3 -5 -1 -10
-10 -10 -9 0 -13 5 -10 10 3 6 8 10 10 10 2 0 7 -4 10 -10z m-79 -36 c-4 -11
6 -28 30 -50 36 -35 36 -48 -1 -16 -37 33 -57 61 -50 71 10 17 28 13 21 -5z
m34 6 c0 -5 -4 -10 -10 -10 -5 0 -10 5 -10 10 0 6 5 10 10 10 6 0 10 -4 10
-10z m1768 -21 c-3 -8 -7 -3 -11 10 -4 17 -3 21 5 13 5 -5 8 -16 6 -23z
m-3778 7 c-7 -7 -13 -7 -20 0 -6 6 -3 10 10 10 13 0 16 -4 10 -10z m200 10 c0
-2 -7 -6 -15 -10 -8 -3 -15 -1 -15 4 0 6 7 10 15 10 8 0 15 -2 15 -4z m-373
-22 c-3 -3 -12 -4 -19 -1 -8 3 -5 6 6 6 11 1 17 -2 13 -5z m98 -9 c-41 -15
-83 -20 -72 -9 7 8 65 22 92 23 11 0 2 -6 -20 -14z m-115 -19 c0 -2 -9 -6 -20
-9 -11 -3 -20 -1 -20 4 0 5 9 9 20 9 11 0 20 -2 20 -4z m3947 -18 c-3 -8 -6
-5 -6 6 -1 11 2 17 5 13 3 -3 4 -12 1 -19z m-1657 -67 c-1 -10 -6 -7 -15 9
-19 33 -18 50 0 26 8 -11 15 -27 15 -35z m-1657 -91 c30 -39 67 -80 83 -92 33
-27 25 -12 -33 60 -24 29 -43 57 -43 63 0 22 26 0 63 -51 20 -30 52 -70 70
-89 18 -20 37 -42 42 -50 13 -22 -16 -2 -39 27 -10 12 -21 21 -24 18 -2 -3 1
-12 8 -21 10 -13 9 -15 -8 -15 -30 0 -182 172 -182 207 0 7 2 13 4 13 3 0 29
-32 59 -70z m866 53 c-46 -56 -120 -121 -222 -196 -71 -52 -80 -57 -110 -49
l-32 9 35 18 c48 25 257 167 300 205 39 33 49 38 29 13z m836 -29 c31 -15 53
-29 51 -32 -3 -3 -11 0 -18 6 -7 5 -32 16 -55 23 -24 6 -43 16 -43 21 0 12 4
11 65 -18z m152 -59 c38 -15 72 -31 78 -36 5 -6 -15 -1 -45 11 -30 12 -71 28
-90 35 -19 8 -29 14 -23 14 7 1 43 -10 80 -24z m1504 -94 c1 -45 -1 -85 -5
-88 -3 -4 -6 36 -6 87 0 114 9 116 11 1z m-41 24 c0 -5 -5 -3 -10 5 -5 8 -10
20 -10 25 0 6 5 3 10 -5 5 -8 10 -19 10 -25z m-1303 8 c-4 -3 -1 -13 6 -21 11
-13 9 -14 -10 -2 -22 14 -22 30 -1 30 6 0 8 -3 5 -7z m60 1 c-3 -3 -12 -4 -19
-1 -8 3 -5 6 6 6 11 1 17 -2 13 -5z m-5 -31 c-6 -2 -10 -9 -6 -14 3 -5 1 -9
-5 -9 -5 0 -12 4 -15 9 -6 9 10 19 29 19 6 0 4 -2 -3 -5z m1265 -35 c-3 -8 -6
-5 -6 6 -1 11 2 17 5 13 3 -3 4 -12 1 -19z m-1162 -19 c11 -17 2 -18 -19 -3
-17 12 -17 14 -4 14 9 0 20 -5 23 -11z m-22 -18 c15 -8 27 -18 27 -23 0 -11
-56 18 -66 33 -7 12 -6 12 39 -10z m-1723 -31 c-18 -16 -40 -30 -49 -30 -12 0
-10 5 9 21 21 17 55 36 69 38 2 1 -11 -12 -29 -29z m2910 -45 c0 -19 -4 -35
-8 -35 -5 0 -8 16 -8 35 1 46 16 46 16 0z m-1096 9 c9 -8 16 -20 16 -25 0 -5
6 -9 14 -9 7 0 22 -11 32 -25 10 -13 21 -20 24 -15 3 5 6 -6 6 -24 0 -30 -2
-32 -13 -18 -7 9 -12 22 -13 27 0 6 -24 31 -52 57 -29 26 -48 48 -41 48 6 0
19 -7 27 -16z m1113 -6 c-3 -8 -6 -5 -6 6 -1 11 2 17 5 13 3 -3 4 -12 1 -19z
m-1062 -8 c3 -5 -1 -10 -10 -10 -9 0 -13 5 -10 10 3 6 8 10 10 10 2 0 7 -4 10
-10z m1045 -121 c-6 -35 -14 -71 -17 -79 -3 -8 -5 -25 -4 -37 1 -12 -2 -30 -7
-39 -11 -20 -7 52 7 116 5 25 7 59 5 75 -4 25 -3 26 5 10 9 -19 10 -19 10 4 1
13 4 22 7 19 3 -3 0 -35 -6 -69z m-971 -39 c5 -16 8 -30 6 -30 -3 0 -11 14
-20 30 -9 17 -11 30 -6 30 5 0 14 -13 20 -30z m21 20 c0 -5 -2 -10 -4 -10 -3
0 -8 5 -11 10 -3 6 -1 10 4 10 6 0 11 -4 11 -10z m917 -12 c-3 -8 -6 -5 -6 6
-1 11 2 17 5 13 3 -3 4 -12 1 -19z m-4555 -20 c-7 -7 -12 -21 -13 -32 0 -13
-3 -16 -6 -8 -6 15 17 65 26 57 2 -3 -1 -11 -7 -17z m3662 -43 c-4 -8 -12 -15
-20 -15 -20 0 -17 18 4 23 9 3 18 5 19 6 1 0 0 -6 -3 -14z m-3697 -37 c-3 -7
-5 -2 -5 12 0 14 2 19 5 13 2 -7 2 -19 0 -25z m3680 -20 c-3 -8 -6 -5 -6 6 -1
11 2 17 5 13 3 -3 4 -12 1 -19z m-3695 -35 c-6 -15 -14 -43 -17 -61 -4 -18 -9
-31 -12 -28 -5 5 15 103 24 119 11 19 15 -5 5 -30z m3717 -23 c0 -10 -3 -8 -9
5 -12 27 -12 43 0 25 5 -8 9 -22 9 -30z m868 -62 c-11 -31 -12 -31 -15 -9 -3
19 10 40 25 41 1 0 -3 -15 -10 -32z m-828 -49 c7 -34 10 -64 7 -67 -3 -3 -6 3
-6 14 -1 10 -9 42 -18 70 -11 32 -14 50 -7 48 6 -3 17 -32 24 -65z m791 -88
c-11 -39 -23 -71 -25 -71 -2 0 -3 15 -2 34 1 19 4 32 7 30 9 -10 28 79 24 114
l-4 37 11 -36 c9 -30 7 -50 -11 -108z m-23 107 c-3 -8 -6 -5 -6 6 -1 11 2 17
5 13 3 -3 4 -12 1 -19z m-737 -28 c0 -5 -5 -10 -11 -10 -5 0 -7 5 -4 10 3 6 8
10 11 10 2 0 4 -4 4 -10z m743 -5 c-3 -9 -8 -14 -10 -11 -3 3 -2 9 2 15 9 16
15 13 8 -4z m-4566 -27 c-3 -8 -6 -5 -6 6 -1 11 2 17 5 13 3 -3 4 -12 1 -19z
m3830 -20 c-3 -8 -6 -5 -6 6 -1 11 2 17 5 13 3 -3 4 -12 1 -19z m1 -103 c0 -5
-6 4 -13 20 -8 17 -14 37 -14 45 0 8 7 -1 14 -20 7 -19 13 -39 13 -45z m682
-38 c0 -5 -4 -5 -10 -2 -5 3 -10 14 -10 23 0 15 2 15 10 2 5 -8 10 -19 10 -23z
m29 -19 c-7 -12 -14 -32 -16 -43 -2 -11 -8 -24 -14 -30 -7 -7 -7 -2 -1 15 5
14 11 30 12 35 7 28 21 57 26 52 3 -3 0 -16 -7 -29z m-4572 -20 c-3 -7 -5 -2
-5 12 0 14 2 19 5 13 2 -7 2 -19 0 -25z m4528 -27 c-3 -2 -5 2 -5 10 0 12 -2
11 -11 -1 -9 -12 -10 -12 -5 3 3 10 6 26 7 35 0 9 5 4 10 -12 4 -17 6 -32 4
-35z m-634 -68 c9 -54 15 -71 20 -57 6 15 8 16 8 2 1 -9 4 -18 9 -21 4 -2 1
-2 -7 0 -10 2 -12 -5 -6 -34 4 -21 10 -39 14 -41 4 -1 5 -17 3 -35 -4 -25 -10
-10 -29 73 -24 106 -37 190 -29 190 3 0 10 -35 17 -77z m639 10 c0 -7 -7 -13
-15 -13 -16 0 -19 9 -9 35 5 13 8 14 15 3 5 -7 9 -19 9 -25z m-603 -25 c-3 -8
-6 -5 -6 6 -1 11 2 17 5 13 3 -3 4 -12 1 -19z m-2252 -58 c3 -6 -6 -15 -20
-20 -36 -14 -37 -13 -25 10 11 21 35 27 45 10z m-405 -50 c14 -26 5 -40 -23
-40 -31 0 -85 -36 -99 -65 -6 -14 -15 -25 -20 -25 -5 0 -6 -4 -3 -10 7 -11
-22 -13 -77 -4 -21 4 -38 11 -38 16 0 5 8 7 18 4 69 -21 72 -20 66 12 -5 26
-3 31 17 34 18 2 25 11 29 33 5 27 9 30 42 27 29 -2 37 1 41 18 7 26 33 26 47
0z m88 -26 c5 -24 30 -44 47 -38 7 3 23 -4 34 -15 12 -12 29 -21 39 -21 10 0
19 -7 19 -15 0 -12 -8 -14 -34 -9 -36 7 -47 -10 -13 -19 24 -6 25 -20 4 -41
-26 -27 -41 -19 -47 26 -6 48 -33 88 -70 106 -23 11 -25 16 -16 33 12 24 33
20 37 -7z m302 -20 c0 -17 -22 -14 -28 4 -2 7 3 12 12 12 9 0 16 -7 16 -16z
m-453 -124 c-4 -58 -11 -79 -22 -69 -6 6 15 129 22 129 3 0 3 -27 0 -60z m129
26 c10 -8 16 -18 12 -22 -4 -4 -14 -2 -21 5 -8 6 -22 9 -31 5 -9 -3 -16 -2
-16 4 0 9 14 19 31 21 3 1 14 -5 25 -13z m-216 -66 c0 -33 39 -84 81 -106 33
-17 37 -31 12 -49 -23 -17 -53 -2 -53 25 0 19 -10 24 -39 20 -11 -1 -12 7 -8
35 5 31 4 35 -8 25 -21 -18 -18 -78 5 -107 24 -30 26 -63 5 -63 -8 0 -15 9
-15 20 0 21 -30 42 -46 32 -6 -4 -13 -15 -17 -24 -7 -21 -27 -24 -27 -5 0 20
30 57 46 57 8 0 14 8 14 18 1 9 7 34 14 54 11 32 11 39 0 49 -19 16 -18 36 3
48 24 13 33 5 33 -29z m2838 5 c-3 -3 -9 2 -12 12 -6 14 -5 15 5 6 7 -7 10
-15 7 -18z m-2918 5 c0 -5 -4 -10 -10 -10 -5 0 -10 5 -10 10 0 6 5 10 10 10 6
0 10 -4 10 -10z m304 -13 c29 -21 28 -62 -2 -89 l-26 -23 17 27 c21 33 21 52
3 67 -12 10 -17 8 -26 -9 -7 -12 -10 -33 -7 -46 2 -13 0 -24 -4 -24 -5 0 -12
-18 -15 -40 -8 -51 -25 -53 -19 -2 12 100 18 138 22 145 7 11 37 8 57 -6z
m2655 -62 c1 -16 -1 -17 -9 -5 -5 8 -9 31 -9 50 l1 35 8 -30 c4 -16 8 -39 9
-50z m-3004 46 c3 -5 1 -12 -5 -16 -5 -3 -10 1 -10 9 0 18 6 21 15 7z m496
-22 c16 -31 6 -124 -16 -149 -22 -24 -48 -26 -65 -5 -18 22 -15 120 4 150 21
31 61 33 77 4z m2476 -1 c-3 -8 -6 -5 -6 6 -1 11 2 17 5 13 3 -3 4 -12 1 -19z
m-2223 -30 c9 -12 16 -41 16 -64 0 -84 -37 -137 -80 -114 -17 9 -20 21 -20 90
0 58 4 83 16 94 22 22 50 20 68 -6z m109 2 c31 0 38 -25 9 -32 -15 -4 -20 -19
-26 -79 -6 -70 -18 -101 -32 -86 -4 3 -2 41 3 83 8 69 8 77 -9 87 -26 17 -23
41 5 33 12 -3 34 -6 50 -6z m2125 -15 c-3 -3 -9 2 -12 12 -6 14 -5 15 5 6 7
-7 10 -15 7 -18z m-2042 -17 c-3 -13 -8 -45 -11 -73 -9 -71 -16 -95 -27 -95
-5 0 -7 26 -3 63 10 107 15 127 31 127 10 0 13 -7 10 -22z m119 2 c3 -6 -2
-13 -12 -16 -38 -12 -47 -22 -59 -67 -13 -52 1 -87 37 -87 10 0 19 -4 19 -10
0 -5 -6 -10 -14 -10 -55 0 -86 67 -64 137 14 49 75 83 93 53z m105 -16 c0 -10
-6 -14 -15 -10 -8 3 -22 -2 -30 -11 -14 -14 -14 -17 0 -37 49 -68 48 -65 35
-96 -11 -26 -18 -30 -51 -30 -29 0 -39 4 -39 16 0 10 6 14 15 10 44 -16 59 30
25 74 -24 30 -25 63 -4 84 21 21 64 21 64 0z"/>
<path d="M2210 4050 c0 -5 4 -10 9 -10 6 0 13 5 16 10 3 6 -1 10 -9 10 -9 0
-16 -4 -16 -10z"/>
<path d="M2468 3868 c-45 -41 -68 -50 -109 -43 -32 6 -48 2 -83 -19 -25 -14
-48 -35 -51 -46 -5 -15 -15 -20 -40 -20 -27 0 -34 -4 -37 -22 -4 -22 -1 -31
18 -83 4 -11 6 -23 6 -27 -1 -5 2 -8 8 -8 6 0 10 -9 10 -20 0 -27 14 -25 26 4
8 21 12 23 34 13 33 -13 53 -14 62 -2 5 6 11 6 19 -2 7 -7 24 -9 39 -6 20 3
29 0 34 -12 4 -11 12 -14 25 -10 22 7 46 -18 37 -40 -3 -8 -14 -15 -25 -15
-11 0 -23 -4 -26 -10 -4 -6 14 -9 45 -9 51 2 141 37 200 79 20 14 30 16 38 8
17 -17 26 15 14 49 -6 20 -15 27 -30 26 -11 -1 -26 4 -32 12 -7 8 -18 15 -24
15 -6 0 -5 -4 3 -9 8 -5 11 -15 8 -23 -6 -18 -67 -12 -67 6 0 7 -3 7 -8 -2 -6
-8 -22 -10 -55 -6 -45 6 -66 24 -29 24 26 0 82 49 82 72 0 32 -32 132 -44 140
-17 11 -21 10 -48 -14z m-204 -181 c8 -7 17 -23 20 -35 6 -19 4 -22 -21 -22
-15 0 -33 4 -39 8 -16 10 -34 48 -27 56 11 11 54 6 67 -7z"/>
<path d="M2345 1580 c3 -5 8 -10 11 -10 2 0 4 5 4 10 0 6 -5 10 -11 10 -5 0
-7 -4 -4 -10z"/>
<path d="M2695 1536 c-27 -20 -35 -133 -10 -142 25 -10 41 16 49 78 9 62 -7
88 -39 64z"/>
<path d="M2951 1486 c-20 -24 -26 -110 -8 -124 12 -10 18 -10 31 4 13 12 16
31 14 72 -3 57 -16 74 -37 48z"/>
</g>
</svg>
